<?xml version="1.0" encoding="iso-8859-1"?>
<!-- Generator: Adobe Illustrator 19.0.0, SVG Export Plug-In . SVG Version: 6.00 Build 0)  -->
<svg version="1.1" id="Layer_1" xmlns="http://www.w3.org/2000/svg" xmlns:xlink="http://www.w3.org/1999/xlink" x="0px" y="0px"
	 viewBox="0 0 511.995 511.995" style="enable-background:new 0 0 511.995 511.995;" xml:space="preserve">
<g>
	<g>
		<path d="M250.257,53.328c-17.672,0-32,14.329-32,32.001c0,17.671,14.328,32,32,32c17.677,0,31.99-14.329,31.99-32
			C282.247,67.657,267.934,53.328,250.257,53.328z M250.257,96c-5.873,0-10.657-4.789-10.657-10.671
			c0-5.883,4.784-10.667,10.657-10.667c5.893,0,10.672,4.784,10.672,10.667C260.929,91.211,256.15,96,250.257,96z"/>
	</g>
</g>
<g>
	<g>
		<path d="M420.935,341.318c-16.618,0-32.158,4.785-45.275,13.031c-17.755-9.197-23.696-15.961-25.656-19.766
			c-0.099-0.195-0.157-0.402-0.256-0.607l-0.273-36.51c22.273-29.805,38.186-66.961,38.332-105.471h4.383v-0.005h6.617
			c5.883,0,8.412-4.235,5.658-9.422c0,0-3.246-6.113-12.246-14.245v-15.715c0-74.76-59-136.016-131.304-141.54
			c0-0.132,0.015-0.27,0.015-0.406C260.93,4.774,256.151,0,250.258,0c-5.887,0-10.657,4.774-10.657,10.662
			c0,0.137,0.02,0.274,0.02,0.406c-72.299,5.524-131.294,66.78-131.294,141.54v15.716c-9.02,8.132-12.265,14.245-12.265,14.245
			c-2.77,5.187-0.221,9.422,5.652,9.422h6.613v0.005h4.387c0.142,38.51,16.079,75.666,38.343,105.471l-0.265,36.51
			c-0.093,0.205-0.172,0.412-0.265,0.607c-2.779,5.412-13.657,16.893-55.451,32.814c-11.784,4.5-20.735,11.312-47.201,18.441
			l-1.833,0.51c-24.089,7.961-40.295,30.303-40.295,55.529v70.117h244.51h170.678c47.029,0.001,85.313-38.284,85.313-85.343
			C506.248,379.603,467.964,341.318,420.935,341.318z M420.935,362.652c32.656,0,59.656,24.588,63.529,56.217
			c-8.029,2.137-19.844,4.559-34,6.137c-4.844-11.539-16.246-19.686-29.529-19.686c-13.285,0-24.717,8.146-29.53,19.686
			c-14.187-1.578-25.971-4-34-6.137C361.248,387.24,388.277,362.652,420.935,362.652z M431.591,437.32
			c0,5.891-4.784,10.676-10.656,10.676c-5.873,0-10.688-4.785-10.688-10.676c0-5.893,4.814-10.668,10.688-10.668
			C426.807,426.652,431.591,431.428,431.591,437.32z M129.648,152.609c0-16.221,3.236-31.976,9.628-46.844
			c6.157-14.343,14.951-27.265,26.157-38.396c11.171-11.099,24.123-19.814,38.48-25.917c14.785-6.27,30.377-9.451,46.343-9.451
			c15.99,0,31.588,3.182,46.373,9.451c14.343,6.103,27.304,14.818,38.461,25.917c11.225,11.132,20,24.054,26.156,38.396
			c6.373,14.868,9.628,30.623,9.628,46.834v0.701c-23.255-12.951-61.029-25.305-120.618-25.305
			c-59.559,0-97.338,12.354-120.608,25.305V152.609z M358.121,170.652H142.404c11.215-5.927,24.436-10.701,39.309-14.211
			c20.029-4.716,43.107-7.117,68.544-7.117c25.461,0,48.529,2.401,68.559,7.117C333.689,159.951,346.905,164.725,358.121,170.652z
			 M134.056,191.996h232.418c-0.158,34.99-16.099,73.143-43.844,104.744c-12.255,13.961-25.971,25.629-39.657,33.766
			c-12.265,7.273-23.872,11.273-32.716,11.273c-8.843,0-20.451-4-32.687-11.273c-13.701-8.137-27.436-19.805-39.671-33.766
			C150.169,265.138,134.212,226.986,134.056,191.996z M334.659,349.977c-10.726,13.422-35.187,34.02-84.402,34.02
			c-54.216,0-75.01-24.873-82.044-37.393c0.456-0.734,0.892-1.48,1.279-2.266c0.392-0.754,0.657-1.371,0.813-1.754l1.784-3.932
			l0.029-4.52l0.094-12.324c25.687,25.403,55.045,41.315,78.045,41.315c23.029,0,52.373-15.912,78.059-41.314l0.089,12.324
			l0.029,4.5l1.784,3.951c0.157,0.344,0.441,1,0.814,1.766C332.032,346.27,333.247,348.153,334.659,349.977z M250.257,490.641
			H27.075v-48.762c0-15.902,10.157-29.98,25.328-35.168l1.187-0.342c19.951-5.373,30.971-10.639,39.813-14.873
			c3.437-1.646,6.388-3.068,9.265-4.156c15.873-6.051,35.735-14.422,50.216-25.1c2.971,4.412,6.907,9.285,12.094,14.178
			c25.313,23.893,60.357,28.902,85.279,28.902c44.932,0,72.589-15.51,87.902-28.551c5.029-4.273,9.088-8.559,12.344-12.5
			c2.401,1.648,4.931,3.236,7.529,4.775c-13.912,15.195-22.441,35.422-22.441,57.607c0,25.461,11.225,48.354,28.971,63.99H250.257z
			 M420.935,490.643c-30.314,0-55.775-21.186-62.373-49.529c8,1.844,18.754,3.883,31.686,5.256
			c3.912,13.244,16.188,22.951,30.688,22.951s26.783-9.707,30.686-22.951c12.912-1.373,23.657-3.412,31.657-5.256
			C476.718,469.457,451.247,490.643,420.935,490.643z"/>
	</g>
</g>
<g>
</g>
<g>
</g>
<g>
</g>
<g>
</g>
<g>
</g>
<g>
</g>
<g>
</g>
<g>
</g>
<g>
</g>
<g>
</g>
<g>
</g>
<g>
</g>
<g>
</g>
<g>
</g>
<g>
</g>
</svg>
